<?xml version="1.0" encoding="utf-8"?>
<!-- Generator: Adobe Illustrator 21.0.2, SVG Export Plug-In . SVG Version: 6.00 Build 0)  -->
<svg version="1.1" id="Layer_1" xmlns="http://www.w3.org/2000/svg" xmlns:xlink="http://www.w3.org/1999/xlink" x="0px" y="0px"
	 width="100px" height="100px" viewBox="0 0 100 100" style="enable-background:new 0 0 100 100;" xml:space="preserve">
<g transform="translate(-42.339 -276.34)">
	<path d="M127.4,329.8l-35.1-31.1l-35.1,31.1v44.4c0,1.1,0.9,2.1,2.1,2.1h21.9v-19.5c0-1.1,0.9-2.1,2.1-2.1h18
		c1.1,0,2.1,0.9,2.1,2.1v19.5h22c1.1,0,2.1-0.9,2.1-2.1L127.4,329.8L127.4,329.8z"/>
	<path d="M92.1,281.7l-49.8,44.1l5.2,5.9l44.8-39.6l44.8,39.6l5.2-5.9l-49.8-44.1l-0.2,0.2L92.1,281.7L92.1,281.7z"/>
	<path d="M57.2,288.1h12.6l-0.1,7.5l-12.5,11.3L57.2,288.1L57.2,288.1z"/>
</g>
</svg>
