<?xml version="1.0" encoding="utf-8"?>
<!-- Generator: Adobe Illustrator 21.0.2, SVG Export Plug-In . SVG Version: 6.00 Build 0)  -->
<svg version="1.1" id="Layer_1" xmlns="http://www.w3.org/2000/svg" xmlns:xlink="http://www.w3.org/1999/xlink" x="0px" y="0px"
	 width="100px" height="100px" viewBox="0 0 100 100" style="enable-background:new 0 0 100 100;" xml:space="preserve">
<g>
	<path d="M52.9,39.4c-0.2,0.4-0.3,0.9-0.3,1.4c-0.1,0.5,0,1,0.1,1.6c0.1,0.3,0.1,0.6,0.2,0.9c0.5,1.4,1.5,2.5,2.9,3.1
		c0.7,0.3,1.5,0.5,2.3,0.5c1,0,1.9-0.3,2.8-0.8c0.5-0.3,0.9-0.6,1.2-1c0.3-0.3,0.6-0.7,0.8-1.1c0.1-0.1,0.1-0.2,0.2-0.4
		c0,0,11.1-24.1,11.1-24.1c0-0.1,0.3-1,0.4-1.3c0.4-2.4-0.8-4.9-3.1-6c-0.7-0.3-1.5-0.5-2.3-0.5c-1.7,0-3.3,0.8-4.3,2.1
		c-0.3,0.4-0.6,0.8-0.7,1.2c0,0,0,0,0,0l0,0c0,0,0,0,0,0L53,39C53,39.1,52.9,39.2,52.9,39.4z"/>
	<path d="M57.9,12.8c0.2,0.2,0.4,0.5,0.5,0.9c0.3,0.8,0.2,1.8,0,2.9c-0.1,0.5-0.3,1.1-0.4,1.6c-0.1,0.2-0.1,0.4-0.2,0.6
		c-0.1,0.3-0.3,0.6-0.4,0.9c-1.5,3-5.4,8-14.5,8.3c0,0,0,0,0,0L39,35.8c2.4,0.6,6.6,1.9,10.2,4.7l12.3-26.9c0.2-0.4,0.3-0.9,0.4-1.3
		c0.4-2.4-0.8-4.9-3.1-6c-0.7-0.3-1.5-0.5-2.3-0.5c-1.7,0-3.3,0.8-4.3,2.1C52,8.2,51.7,8.6,51.5,9c0,0,0,0,0,0l0,0l0,0l-1.6,3.4h7.5
		C57.5,12.4,57.9,12.8,57.9,12.8z"/>
	<path d="M43.3,12.4h3.6L49,7.9c0.2-0.4,0.3-0.9,0.4-1.3c0.4-2.4-0.8-4.9-3.1-6C45.5,0.2,44.7,0,43.9,0c-1.7,0-3.3,0.8-4.3,2.1
		c-0.3,0.4-0.6,0.8-0.8,1.2c0,0,0,0,0,0l-4.2,9.2C34.7,12.4,43.3,12.4,43.3,12.4z"/>
	<polygon points="49,7.9 49,7.9 49,7.9 49,7.9 	"/>
	<polygon points="73,28.8 73,28.8 73,28.8 	"/>
	<polygon points="62.4,45.3 62.4,45.2 62.4,45.2 	"/>
	<polygon points="62.4,45.2 62.4,45.2 62.4,45.2 	"/>
	<path d="M82.6,33.3c0-0.6-0.3-1.9-0.4-1.9c-0.8-2.1-2.8-3.6-5.2-3.6c-0.5,0-1,0.1-1.4,0.2c-0.8,0.2-1.5,0.6-2.1,1.1
		c-0.7,0.6-1.3,1.4-1.6,2.3c0,0,0,0,0,0l-6.9,15h0c-0.2,0.4-0.3,0.9-0.3,1.4c0,0.2,0,0.3,0,0.5c0.1,1.3,0.9,2.5,2.2,3.1
		c0.6,0.3,1.3,0.4,1.9,0.3c0.8-0.1,1.6-0.4,2.2-1c0.3-0.3,0.5-0.6,0.7-1l3.6-7.8l2.5,1.2l0.2-0.5l-3.7,8.1l0,0
		c-0.1,0.1-0.1,0.3-0.2,0.4c-0.2,0.3-0.3,0.5-0.5,0.8c-0.4,0.5-0.9,1-1.4,1.3c-1,0.7-2.2,1.2-3.5,1.2c-0.1,0-0.2,0-0.3,0h0
		c-0.9,0-1.9-0.2-2.7-0.6c-1.3-0.6-2.3-1.6-2.9-2.7c-0.3-0.6-0.5-1.2-0.7-1.8c-0.1-0.2-0.1-0.5-0.1-0.7c-0.4,0.2-0.9,0.4-1.3,0.6
		c-0.8,0.2-1.6,0.4-2.4,0.4h0c-1,0-1.6-0.2-2.5-0.5c0.5,1.7,0.8,3.5,0.8,5.6v10.5h-2.8V54.8c0-2.5-0.8-4.7-1.6-6.5
		c-3.8-8.5-14.6-10-15.2-10.1l-1.9-0.2l6.1-12.8h0.9c0.2,0,0.4,0,0.7,0c0.5,0,1.1,0,1.6-0.1c5.3-0.5,8.2-3,9.7-5.1
		c0.1-0.2,0.2-0.4,0.4-0.5c0.3-0.4,0.5-0.8,0.7-1.2c0.2-0.5,0.4-0.9,0.5-1.3c0.2-0.6,0.3-1.2,0.3-1.6h-23c-2.8,0-5.2,1.5-6.5,3.6
		c-0.3,0.5-0.6,1.1-0.8,1.6L18.3,36L18,36.8c-0.4,0.9-0.6,1.8-0.6,2.9c0,1.4,0.4,2.7,1,3.8l0.8,1.1L36.9,68v32h33.3v0h2.8l0-23.6
		l8.8-18c0.1-0.2,0.2-0.4,0.3-0.7c0.2-0.6,0.4-1.2,0.4-1.9C82.6,55.8,82.6,33.3,82.6,33.3L82.6,33.3z"/>
</g>
</svg>
