<?xml version="1.0" encoding="utf-8"?>
<!-- Generator: Adobe Illustrator 21.0.2, SVG Export Plug-In . SVG Version: 6.00 Build 0)  -->
<svg version="1.1" id="Layer_1" xmlns="http://www.w3.org/2000/svg" xmlns:xlink="http://www.w3.org/1999/xlink" x="0px" y="0px"
	 width="100px" height="100px" viewBox="0 0 100 100" style="enable-background:new 0 0 100 100;" xml:space="preserve">
<g>
	<path d="M54.5,40.6c8.9-0.7,12.7-6.4,12.7-6.4l11.5,1.2L94,41.7c1,0.4,2.2-0.1,2.6-1.1l1.3-3.1c0.4-1-0.1-2.2-1.1-2.6L81,28.3
		l-10.4-4.6c0,0-3.2-1.2-7.5,0c0,0,0,0,0,0c-1.2-2.2,9-5.2,13.7-6.5c0.4-0.1,0.7-0.2,1-0.4c0.2,0,0.3,0,0.5,0l16.3-1.2
		c1-0.1,1.8-1,1.8-2l-0.2-3.1c-0.1-1-1-1.8-2-1.8L77.8,10c-0.2,0-0.5,0.1-0.7,0.2c-0.4-0.2-0.9-0.3-1.4-0.3l-0.9,0c0,0,0,0,0,0
		l6.1-3.8c0.9-0.6,1.1-1.7,0.6-2.6l-1.6-2.6c-0.6-0.9-1.7-1.1-2.6-0.6L63.4,9c-0.1,0.1-0.2,0.2-0.3,0.3c-0.2,0.1-0.5,0.2-0.7,0.3
		c-3.9,2.2-11.3,7.1-19,14l-0.6-3.4l6.5-10c0.5-0.8,0.3-1.9-0.5-2.4l-1.8-1.2c-0.8-0.5-1.9-0.3-2.4,0.5l-9.1,14
		C34.7,22.1,31,34.7,30,38c-2.9,3.9-5.5,8-7.7,12.5C14.6,66.7,6.7,76.1,3,80.1c-1.3,1.3-1.4,3.4-0.3,4.9l10.4,13.6
		c1.3,1.7,3.8,2,5.4,0.6c6.1-5.3,11.9-6.9,24.5-12.2c4.6-1.9,7.5-4.4,9.2-7c0.4,0,0.8,0,1.2-0.1c7.6-1.6,25.3-6.7,25.3-6.7l16.1-2.7
		c1.3-0.2,2.2-1.5,2-2.8l-1-5.6c-0.2-1.3-1.5-2.2-2.8-2L77,62.8l-23.6-0.2C52.2,58.9,49,54,47,51.2c-0.2-0.2-0.3-0.5-0.4-0.7
		C50.7,47.5,54.5,40.6,54.5,40.6z"/>
	<g>
		<path d="M89.6,59.1c-1.9-0.2-3.5-1.1-3.5-3.6c0-1.6,1-2.7,2.3-2.7c0.9,0,1.4,0.4,1.4,0.8c-0.9,0.2-1.3,1.1-1.3,2.3
			c0,0.9,0.6,1.6,1.3,1.9l1.1-6.2c-1.5-1.3-3.3-2.3-3.3-4.3c0-2.3,2.5-4,4.8-4.1l0.6-3.3h1.8l-0.8,3.4c1.4,0.2,2.7,0.8,2.7,2.6
			c0,1.4-0.6,2.4-1.5,2.4c-0.5,0-0.8-0.2-1.2-0.7c0.5-0.3,0.8-1,0.8-1.6c0-0.5-0.3-1.1-1-1.4l-1.1,5.1c1.6,1,3.6,2.2,3.6,4.8
			c0,3-2.4,4.6-5.7,4.7l-0.9,4.2h-0.8L89.6,59.1z M91.5,48.6l0.8-4.2c-1.2,0.3-1.6,1.4-1.6,2.3C90.6,47.5,91,48.1,91.5,48.6z
			 M92.1,52.7l-1.2,5.2c1.5-0.2,2.1-1.4,2.1-2.8C93,54.1,92.6,53.4,92.1,52.7z"/>
	</g>
</g>
<g>
</g>
<g>
</g>
<g>
</g>
<g>
</g>
<g>
</g>
<g>
</g>
<g>
</g>
<g>
</g>
<g>
</g>
<g>
</g>
<g>
</g>
<g>
</g>
<g>
</g>
<g>
</g>
<g>
</g>
</svg>
