<svg xmlns="http://www.w3.org/2000/svg" width="115" height="125" viewBox="0 0 115.4 125"><style type="text/css">  
	.st0{fill:#FFFFFF;}
	.st1{fill:#00582F;}
	.st2{fill:#A75425;}
</style><path class="st0" d="M112.3 45.8c-4.2-11.4-12-19.4-22.1-22.4 -2.8-0.9-5.8-1.3-8.8-1.3 -8.1 0-16.1 3.1-23.2 8.7l-0.6-0.5C37.5 14.1 13.2 3.3 6.3 0.4 5.8 0.2 5.2 0 4.3 0L1.1 0 0.2 3c-0.5 1.5-0.2 3.6 1.9 5 1.8 1.2 4.7 5.2 8.3 17.2 2.8 9.4 5.4 21.4 7.9 33 5 23.2 9.7 45.2 17.4 53.9 9.3 10.6 20.4 12.8 28 12.8 10.4 0 14.5-5.3 16.5-6.3 0.1 0 0.3-0.1 0.4-0.1 0 0 0 0 0 0l0 0c5.3-1.8 10.5-4.8 15.2-9 7.7-6.9 13.5-16.4 16.8-27.3C116.4 69.7 116.3 56.8 112.3 45.8z"/><path class="st1" d="M61.4 119.1c-10.1-3-17.9-11-22.1-22.4 -4-11-4.1-24-0.4-36.5 3.2-10.5 8.7-19.6 16-26.5C35.2 17.8 11.2 7.2 4.6 4.4 4.2 4.2 4.2 4.3 4.5 4.5c15 10.2 20 88.5 34.4 104.8 9.4 10.7 21.4 12.2 29.8 11C66.2 120.2 63.8 119.8 61.4 119.1z"/><path class="st0" d="M27.9 26.4c0 0 50.6 35.7 46.3 83.3C74.3 109.6 59.4 49.4 27.9 26.4z"/><ellipse transform="matrix(0.2884 -0.9575 0.9575 0.2884 -14.2587 123.2257)" class="st2" cx="75.8" cy="71.2" rx="45.7" ry="34.2"/><ellipse transform="matrix(0.2884 -0.9575 0.9575 0.2884 -13.9768 124.006)" class="st0" cx="76.4" cy="71.4" rx="37.1" ry="3.5"/></svg>